<mxfile host="drawio-plugin" modified="2023-02-04T22:37:18.780Z" agent="5.0 (Windows NT 6.2; Win64; x64) AppleWebKit/537.36 (KHTML, like Gecko) Chrome/104.0.5112.102 Safari/537.36" etag="xBwvipaKERBVBWtwoXRI" version="20.5.3" type="embed"><diagram id="C5RBs43oDa-KdzZeNtuy" name="Page-1"><mxGraphModel dx="378" dy="693" grid="1" gridSize="10" guides="1" tooltips="1" connect="1" arrows="1" fold="1" page="1" pageScale="1" pageWidth="827" pageHeight="1169" math="0" shadow="0"><root><mxCell id="WIyWlLk6GJQsqaUBKTNV-0"/><mxCell id="WIyWlLk6GJQsqaUBKTNV-1" parent="WIyWlLk6GJQsqaUBKTNV-0"/><mxCell id="wLVJEsf6AbZPAwA1VKSY-4" value="Usuario" style="swimlane;fontStyle=0;childLayout=stackLayout;horizontal=1;startSize=26;fillColor=none;horizontalStack=0;resizeParent=1;resizeParentMax=0;resizeLast=0;collapsible=1;marginBottom=0;" parent="WIyWlLk6GJQsqaUBKTNV-1" vertex="1"><mxGeometry x="100" y="42" width="150" height="234" as="geometry"/></mxCell><mxCell id="wLVJEsf6AbZPAwA1VKSY-5" value="- id: ID" style="text;strokeColor=none;fillColor=none;align=left;verticalAlign=top;spacingLeft=4;spacingRight=4;overflow=hidden;rotatable=0;points=[[0,0.5],[1,0.5]];portConstraint=eastwest;" parent="wLVJEsf6AbZPAwA1VKSY-4" vertex="1"><mxGeometry y="26" width="150" height="26" as="geometry"/></mxCell><mxCell id="wLVJEsf6AbZPAwA1VKSY-13" value="- uuid: UUID" style="text;strokeColor=none;fillColor=none;align=left;verticalAlign=top;spacingLeft=4;spacingRight=4;overflow=hidden;rotatable=0;points=[[0,0.5],[1,0.5]];portConstraint=eastwest;" parent="wLVJEsf6AbZPAwA1VKSY-4" vertex="1"><mxGeometry y="52" width="150" height="26" as="geometry"/></mxCell><mxCell id="wLVJEsf6AbZPAwA1VKSY-6" value="+ nombre: String" style="text;strokeColor=none;fillColor=none;align=left;verticalAlign=top;spacingLeft=4;spacingRight=4;overflow=hidden;rotatable=0;points=[[0,0.5],[1,0.5]];portConstraint=eastwest;" parent="wLVJEsf6AbZPAwA1VKSY-4" vertex="1"><mxGeometry y="78" width="150" height="26" as="geometry"/></mxCell><mxCell id="wLVJEsf6AbZPAwA1VKSY-7" value="+ apellido: String" style="text;strokeColor=none;fillColor=none;align=left;verticalAlign=top;spacingLeft=4;spacingRight=4;overflow=hidden;rotatable=0;points=[[0,0.5],[1,0.5]];portConstraint=eastwest;" parent="wLVJEsf6AbZPAwA1VKSY-4" vertex="1"><mxGeometry y="104" width="150" height="26" as="geometry"/></mxCell><mxCell id="wLVJEsf6AbZPAwA1VKSY-12" value="+ email: String&#10;" style="text;strokeColor=none;fillColor=none;align=left;verticalAlign=top;spacingLeft=4;spacingRight=4;overflow=hidden;rotatable=0;points=[[0,0.5],[1,0.5]];portConstraint=eastwest;" parent="wLVJEsf6AbZPAwA1VKSY-4" vertex="1"><mxGeometry y="130" width="150" height="26" as="geometry"/></mxCell><mxCell id="wLVJEsf6AbZPAwA1VKSY-14" value="+ password: String&#10;" style="text;strokeColor=none;fillColor=none;align=left;verticalAlign=top;spacingLeft=4;spacingRight=4;overflow=hidden;rotatable=0;points=[[0,0.5],[1,0.5]];portConstraint=eastwest;" parent="wLVJEsf6AbZPAwA1VKSY-4" vertex="1"><mxGeometry y="156" width="150" height="26" as="geometry"/></mxCell><mxCell id="0" value="+ perfil: Enum_Perfil" style="text;strokeColor=none;fillColor=none;align=left;verticalAlign=top;spacingLeft=4;spacingRight=4;overflow=hidden;rotatable=0;points=[[0,0.5],[1,0.5]];portConstraint=eastwest;" parent="wLVJEsf6AbZPAwA1VKSY-4" vertex="1"><mxGeometry y="182" width="150" height="26" as="geometry"/></mxCell><mxCell id="wLVJEsf6AbZPAwA1VKSY-15" value="+ turno: ID" style="text;strokeColor=none;fillColor=none;align=left;verticalAlign=top;spacingLeft=4;spacingRight=4;overflow=hidden;rotatable=0;points=[[0,0.5],[1,0.5]];portConstraint=eastwest;" parent="wLVJEsf6AbZPAwA1VKSY-4" vertex="1"><mxGeometry y="208" width="150" height="26" as="geometry"/></mxCell><mxCell id="wLVJEsf6AbZPAwA1VKSY-16" value="Pedidos" style="swimlane;fontStyle=0;childLayout=stackLayout;horizontal=1;startSize=26;fillColor=none;horizontalStack=0;resizeParent=1;resizeParentMax=0;resizeLast=0;collapsible=1;marginBottom=0;" parent="WIyWlLk6GJQsqaUBKTNV-1" vertex="1"><mxGeometry x="580" y="80" width="230" height="234" as="geometry"/></mxCell><mxCell id="wLVJEsf6AbZPAwA1VKSY-17" value="- id: ID" style="text;strokeColor=none;fillColor=none;align=left;verticalAlign=top;spacingLeft=4;spacingRight=4;overflow=hidden;rotatable=0;points=[[0,0.5],[1,0.5]];portConstraint=eastwest;" parent="wLVJEsf6AbZPAwA1VKSY-16" vertex="1"><mxGeometry y="26" width="230" height="26" as="geometry"/></mxCell><mxCell id="wLVJEsf6AbZPAwA1VKSY-18" value="- uuid: UUID" style="text;strokeColor=none;fillColor=none;align=left;verticalAlign=top;spacingLeft=4;spacingRight=4;overflow=hidden;rotatable=0;points=[[0,0.5],[1,0.5]];portConstraint=eastwest;" parent="wLVJEsf6AbZPAwA1VKSY-16" vertex="1"><mxGeometry y="52" width="230" height="26" as="geometry"/></mxCell><mxCell id="wLVJEsf6AbZPAwA1VKSY-19" value="+ estado: Enum_Estado" style="text;strokeColor=none;fillColor=none;align=left;verticalAlign=top;spacingLeft=4;spacingRight=4;overflow=hidden;rotatable=0;points=[[0,0.5],[1,0.5]];portConstraint=eastwest;" parent="wLVJEsf6AbZPAwA1VKSY-16" vertex="1"><mxGeometry y="78" width="230" height="26" as="geometry"/></mxCell><mxCell id="wLVJEsf6AbZPAwA1VKSY-21" value="+ fechaEntrada: LocalDate" style="text;strokeColor=none;fillColor=none;align=left;verticalAlign=top;spacingLeft=4;spacingRight=4;overflow=hidden;rotatable=0;points=[[0,0.5],[1,0.5]];portConstraint=eastwest;" parent="wLVJEsf6AbZPAwA1VKSY-16" vertex="1"><mxGeometry y="104" width="230" height="26" as="geometry"/></mxCell><mxCell id="wLVJEsf6AbZPAwA1VKSY-22" value="+ fechaSalidaProgramada: LocalDate" style="text;strokeColor=none;fillColor=none;align=left;verticalAlign=top;spacingLeft=4;spacingRight=4;overflow=hidden;rotatable=0;points=[[0,0.5],[1,0.5]];portConstraint=eastwest;" parent="wLVJEsf6AbZPAwA1VKSY-16" vertex="1"><mxGeometry y="130" width="230" height="26" as="geometry"/></mxCell><mxCell id="wLVJEsf6AbZPAwA1VKSY-23" value="+ fechaEntrega: LocalDate" style="text;strokeColor=none;fillColor=none;align=left;verticalAlign=top;spacingLeft=4;spacingRight=4;overflow=hidden;rotatable=0;points=[[0,0.5],[1,0.5]];portConstraint=eastwest;" parent="wLVJEsf6AbZPAwA1VKSY-16" vertex="1"><mxGeometry y="156" width="230" height="26" as="geometry"/></mxCell><mxCell id="wLVJEsf6AbZPAwA1VKSY-24" value="+ Precio: Double" style="text;strokeColor=none;fillColor=none;align=left;verticalAlign=top;spacingLeft=4;spacingRight=4;overflow=hidden;rotatable=0;points=[[0,0.5],[1,0.5]];portConstraint=eastwest;" parent="wLVJEsf6AbZPAwA1VKSY-16" vertex="1"><mxGeometry y="182" width="230" height="26" as="geometry"/></mxCell><mxCell id="09wgL-icxeziZa0lxa4r-7" value="+ Usuario: UsuarioDTO" style="text;strokeColor=none;fillColor=none;align=left;verticalAlign=top;spacingLeft=4;spacingRight=4;overflow=hidden;rotatable=0;points=[[0,0.5],[1,0.5]];portConstraint=eastwest;" parent="wLVJEsf6AbZPAwA1VKSY-16" vertex="1"><mxGeometry y="208" width="230" height="26" as="geometry"/></mxCell><mxCell id="wLVJEsf6AbZPAwA1VKSY-26" value="1" style="endArrow=open;html=1;endSize=12;startArrow=diamondThin;startSize=14;startFill=0;edgeStyle=orthogonalEdgeStyle;align=left;verticalAlign=bottom;rounded=0;exitX=1;exitY=0.5;exitDx=0;exitDy=0;entryX=0;entryY=0.5;entryDx=0;entryDy=0;" parent="WIyWlLk6GJQsqaUBKTNV-1" source="wLVJEsf6AbZPAwA1VKSY-7" target="wLVJEsf6AbZPAwA1VKSY-21" edge="1"><mxGeometry x="-1" relative="1" as="geometry"><mxPoint x="410" y="190" as="sourcePoint"/><mxPoint x="570" y="190" as="targetPoint"/><mxPoint as="offset"/></mxGeometry></mxCell><mxCell id="wLVJEsf6AbZPAwA1VKSY-28" value="N" style="text;html=1;align=center;verticalAlign=middle;resizable=0;points=[];autosize=1;strokeColor=none;fillColor=none;" parent="WIyWlLk6GJQsqaUBKTNV-1" vertex="1"><mxGeometry x="545" y="169" width="30" height="30" as="geometry"/></mxCell><mxCell id="wLVJEsf6AbZPAwA1VKSY-29" value="Maquina" style="swimlane;fontStyle=0;childLayout=stackLayout;horizontal=1;startSize=26;fillColor=none;horizontalStack=0;resizeParent=1;resizeParentMax=0;resizeLast=0;collapsible=1;marginBottom=0;" parent="WIyWlLk6GJQsqaUBKTNV-1" vertex="1"><mxGeometry x="930" y="413" width="180" height="208" as="geometry"/></mxCell><mxCell id="wLVJEsf6AbZPAwA1VKSY-30" value="- id: ID" style="text;strokeColor=none;fillColor=none;align=left;verticalAlign=top;spacingLeft=4;spacingRight=4;overflow=hidden;rotatable=0;points=[[0,0.5],[1,0.5]];portConstraint=eastwest;" parent="wLVJEsf6AbZPAwA1VKSY-29" vertex="1"><mxGeometry y="26" width="180" height="26" as="geometry"/></mxCell><mxCell id="wLVJEsf6AbZPAwA1VKSY-31" value="- numSerie: UUID" style="text;strokeColor=none;fillColor=none;align=left;verticalAlign=top;spacingLeft=4;spacingRight=4;overflow=hidden;rotatable=0;points=[[0,0.5],[1,0.5]];portConstraint=eastwest;" parent="wLVJEsf6AbZPAwA1VKSY-29" vertex="1"><mxGeometry y="52" width="180" height="26" as="geometry"/></mxCell><mxCell id="wLVJEsf6AbZPAwA1VKSY-32" value="+ marca: String" style="text;strokeColor=none;fillColor=none;align=left;verticalAlign=top;spacingLeft=4;spacingRight=4;overflow=hidden;rotatable=0;points=[[0,0.5],[1,0.5]];portConstraint=eastwest;" parent="wLVJEsf6AbZPAwA1VKSY-29" vertex="1"><mxGeometry y="78" width="180" height="26" as="geometry"/></mxCell><mxCell id="wLVJEsf6AbZPAwA1VKSY-52" value="+ modelo: String" style="text;strokeColor=none;fillColor=none;align=left;verticalAlign=top;spacingLeft=4;spacingRight=4;overflow=hidden;rotatable=0;points=[[0,0.5],[1,0.5]];portConstraint=eastwest;" parent="wLVJEsf6AbZPAwA1VKSY-29" vertex="1"><mxGeometry y="104" width="180" height="26" as="geometry"/></mxCell><mxCell id="wLVJEsf6AbZPAwA1VKSY-53" value="+ fechaAdquisicion: LocalDate" style="text;strokeColor=none;fillColor=none;align=left;verticalAlign=top;spacingLeft=4;spacingRight=4;overflow=hidden;rotatable=0;points=[[0,0.5],[1,0.5]];portConstraint=eastwest;" parent="wLVJEsf6AbZPAwA1VKSY-29" vertex="1"><mxGeometry y="130" width="180" height="26" as="geometry"/></mxCell><mxCell id="wLVJEsf6AbZPAwA1VKSY-62" value="+ descripcion: String" style="text;strokeColor=none;fillColor=none;align=left;verticalAlign=top;spacingLeft=4;spacingRight=4;overflow=hidden;rotatable=0;points=[[0,0.5],[1,0.5]];portConstraint=eastwest;" parent="wLVJEsf6AbZPAwA1VKSY-29" vertex="1"><mxGeometry y="156" width="180" height="26" as="geometry"/></mxCell><mxCell id="09wgL-icxeziZa0lxa4r-5" value="+ TipoMaquina: Enum" style="text;strokeColor=none;fillColor=none;align=left;verticalAlign=top;spacingLeft=4;spacingRight=4;overflow=hidden;rotatable=0;points=[[0,0.5],[1,0.5]];portConstraint=eastwest;" parent="wLVJEsf6AbZPAwA1VKSY-29" vertex="1"><mxGeometry y="182" width="180" height="26" as="geometry"/></mxCell><mxCell id="GIEl06KKrTqUNCEo8xZw-4" value="Producto" style="swimlane;fontStyle=0;childLayout=stackLayout;horizontal=1;startSize=26;fillColor=none;horizontalStack=0;resizeParent=1;resizeParentMax=0;resizeLast=0;collapsible=1;marginBottom=0;" parent="WIyWlLk6GJQsqaUBKTNV-1" vertex="1"><mxGeometry x="991" y="68" width="140" height="182" as="geometry"/></mxCell><mxCell id="GIEl06KKrTqUNCEo8xZw-5" value="- id: ID" style="text;strokeColor=none;fillColor=none;align=left;verticalAlign=top;spacingLeft=4;spacingRight=4;overflow=hidden;rotatable=0;points=[[0,0.5],[1,0.5]];portConstraint=eastwest;" parent="GIEl06KKrTqUNCEo8xZw-4" vertex="1"><mxGeometry y="26" width="140" height="26" as="geometry"/></mxCell><mxCell id="GIEl06KKrTqUNCEo8xZw-6" value="- uuid: UUID" style="text;strokeColor=none;fillColor=none;align=left;verticalAlign=top;spacingLeft=4;spacingRight=4;overflow=hidden;rotatable=0;points=[[0,0.5],[1,0.5]];portConstraint=eastwest;" parent="GIEl06KKrTqUNCEo8xZw-4" vertex="1"><mxGeometry y="52" width="140" height="26" as="geometry"/></mxCell><mxCell id="GIEl06KKrTqUNCEo8xZw-7" value="+ marca: String" style="text;strokeColor=none;fillColor=none;align=left;verticalAlign=top;spacingLeft=4;spacingRight=4;overflow=hidden;rotatable=0;points=[[0,0.5],[1,0.5]];portConstraint=eastwest;" parent="GIEl06KKrTqUNCEo8xZw-4" vertex="1"><mxGeometry y="78" width="140" height="26" as="geometry"/></mxCell><mxCell id="GIEl06KKrTqUNCEo8xZw-8" value="+ modelo: String" style="text;strokeColor=none;fillColor=none;align=left;verticalAlign=top;spacingLeft=4;spacingRight=4;overflow=hidden;rotatable=0;points=[[0,0.5],[1,0.5]];portConstraint=eastwest;" parent="GIEl06KKrTqUNCEo8xZw-4" vertex="1"><mxGeometry y="104" width="140" height="26" as="geometry"/></mxCell><mxCell id="GIEl06KKrTqUNCEo8xZw-9" value="+ precio: Double" style="text;strokeColor=none;fillColor=none;align=left;verticalAlign=top;spacingLeft=4;spacingRight=4;overflow=hidden;rotatable=0;points=[[0,0.5],[1,0.5]];portConstraint=eastwest;" parent="GIEl06KKrTqUNCEo8xZw-4" vertex="1"><mxGeometry y="130" width="140" height="26" as="geometry"/></mxCell><mxCell id="GIEl06KKrTqUNCEo8xZw-10" value="+ stock: Int" style="text;strokeColor=none;fillColor=none;align=left;verticalAlign=top;spacingLeft=4;spacingRight=4;overflow=hidden;rotatable=0;points=[[0,0.5],[1,0.5]];portConstraint=eastwest;" parent="GIEl06KKrTqUNCEo8xZw-4" vertex="1"><mxGeometry y="156" width="140" height="26" as="geometry"/></mxCell><mxCell id="GIEl06KKrTqUNCEo8xZw-11" value="Tarea" style="swimlane;fontStyle=0;childLayout=stackLayout;horizontal=1;startSize=26;fillColor=none;horizontalStack=0;resizeParent=1;resizeParentMax=0;resizeLast=0;collapsible=1;marginBottom=0;" parent="WIyWlLk6GJQsqaUBKTNV-1" vertex="1"><mxGeometry x="420" y="478" width="180" height="260" as="geometry"/></mxCell><mxCell id="GIEl06KKrTqUNCEo8xZw-12" value="- id: ID" style="text;strokeColor=none;fillColor=none;align=left;verticalAlign=top;spacingLeft=4;spacingRight=4;overflow=hidden;rotatable=0;points=[[0,0.5],[1,0.5]];portConstraint=eastwest;" parent="GIEl06KKrTqUNCEo8xZw-11" vertex="1"><mxGeometry y="26" width="180" height="26" as="geometry"/></mxCell><mxCell id="GIEl06KKrTqUNCEo8xZw-13" value="- uuid: UUID" style="text;strokeColor=none;fillColor=none;align=left;verticalAlign=top;spacingLeft=4;spacingRight=4;overflow=hidden;rotatable=0;points=[[0,0.5],[1,0.5]];portConstraint=eastwest;" parent="GIEl06KKrTqUNCEo8xZw-11" vertex="1"><mxGeometry y="52" width="180" height="26" as="geometry"/></mxCell><mxCell id="GIEl06KKrTqUNCEo8xZw-14" value="+ producto: Producto" style="text;strokeColor=none;fillColor=none;align=left;verticalAlign=top;spacingLeft=4;spacingRight=4;overflow=hidden;rotatable=0;points=[[0,0.5],[1,0.5]];portConstraint=eastwest;" parent="GIEl06KKrTqUNCEo8xZw-11" vertex="1"><mxGeometry y="78" width="180" height="26" as="geometry"/></mxCell><mxCell id="GIEl06KKrTqUNCEo8xZw-18" value="+ precio: Double" style="text;strokeColor=none;fillColor=none;align=left;verticalAlign=top;spacingLeft=4;spacingRight=4;overflow=hidden;rotatable=0;points=[[0,0.5],[1,0.5]];portConstraint=eastwest;" parent="GIEl06KKrTqUNCEo8xZw-11" vertex="1"><mxGeometry y="104" width="180" height="26" as="geometry"/></mxCell><mxCell id="wLVJEsf6AbZPAwA1VKSY-20" value="+ maquinaAsociada: Maquina" style="text;strokeColor=none;fillColor=none;align=left;verticalAlign=top;spacingLeft=4;spacingRight=4;overflow=hidden;rotatable=0;points=[[0,0.5],[1,0.5]];portConstraint=eastwest;" parent="GIEl06KKrTqUNCEo8xZw-11" vertex="1"><mxGeometry y="130" width="180" height="26" as="geometry"/></mxCell><mxCell id="4" value="+ empleado: UsuarioDTO" style="text;strokeColor=none;fillColor=none;align=left;verticalAlign=top;spacingLeft=4;spacingRight=4;overflow=hidden;rotatable=0;points=[[0,0.5],[1,0.5]];portConstraint=eastwest;" parent="GIEl06KKrTqUNCEo8xZw-11" vertex="1"><mxGeometry y="156" width="180" height="26" as="geometry"/></mxCell><mxCell id="3" value="+ turno: Turno" style="text;strokeColor=none;fillColor=none;align=left;verticalAlign=top;spacingLeft=4;spacingRight=4;overflow=hidden;rotatable=0;points=[[0,0.5],[1,0.5]];portConstraint=eastwest;" parent="GIEl06KKrTqUNCEo8xZw-11" vertex="1"><mxGeometry y="182" width="180" height="26" as="geometry"/></mxCell><mxCell id="5" value="+ pedido: Pedido" style="text;strokeColor=none;fillColor=none;align=left;verticalAlign=top;spacingLeft=4;spacingRight=4;overflow=hidden;rotatable=0;points=[[0,0.5],[1,0.5]];portConstraint=eastwest;" parent="GIEl06KKrTqUNCEo8xZw-11" vertex="1"><mxGeometry y="208" width="180" height="26" as="geometry"/></mxCell><mxCell id="9ycLhSsThr9yeAhKwglg-0" value="+ estadoCompleatdo: Boolean" style="text;strokeColor=none;fillColor=none;align=left;verticalAlign=top;spacingLeft=4;spacingRight=4;overflow=hidden;rotatable=0;points=[[0,0.5],[1,0.5]];portConstraint=eastwest;" parent="GIEl06KKrTqUNCEo8xZw-11" vertex="1"><mxGeometry y="234" width="180" height="26" as="geometry"/></mxCell><mxCell id="GIEl06KKrTqUNCEo8xZw-35" value="1" style="endArrow=open;html=1;endSize=12;startArrow=diamondThin;startSize=14;startFill=0;edgeStyle=orthogonalEdgeStyle;align=left;verticalAlign=bottom;rounded=0;exitX=1;exitY=0.5;exitDx=0;exitDy=0;entryX=0.491;entryY=1.11;entryDx=0;entryDy=0;entryPerimeter=0;" parent="WIyWlLk6GJQsqaUBKTNV-1" source="GIEl06KKrTqUNCEo8xZw-12" target="GIEl06KKrTqUNCEo8xZw-10" edge="1"><mxGeometry x="-0.9812" y="10" relative="1" as="geometry"><mxPoint x="840" y="220" as="sourcePoint"/><mxPoint x="970" y="200" as="targetPoint"/><Array as="points"><mxPoint x="680" y="517"/><mxPoint x="680" y="400"/><mxPoint x="880" y="400"/><mxPoint x="880" y="320"/><mxPoint x="1060" y="320"/></Array><mxPoint as="offset"/></mxGeometry></mxCell><mxCell id="GIEl06KKrTqUNCEo8xZw-36" value="1" style="text;html=1;align=center;verticalAlign=middle;resizable=0;points=[];autosize=1;strokeColor=none;fillColor=none;" parent="WIyWlLk6GJQsqaUBKTNV-1" vertex="1"><mxGeometry x="1067" y="258" width="30" height="30" as="geometry"/></mxCell><mxCell id="GIEl06KKrTqUNCEo8xZw-37" value="0" style="endArrow=open;html=1;endSize=12;startArrow=diamondThin;startSize=14;startFill=0;edgeStyle=orthogonalEdgeStyle;align=left;verticalAlign=bottom;rounded=0;entryX=0;entryY=0.5;entryDx=0;entryDy=0;exitX=1;exitY=0.5;exitDx=0;exitDy=0;" parent="WIyWlLk6GJQsqaUBKTNV-1" source="GIEl06KKrTqUNCEo8xZw-18" target="wLVJEsf6AbZPAwA1VKSY-32" edge="1"><mxGeometry x="-0.9579" y="10" relative="1" as="geometry"><mxPoint x="760" y="360" as="sourcePoint"/><mxPoint x="1380" y="510" as="targetPoint"/><Array as="points"><mxPoint x="760" y="595"/><mxPoint x="760" y="504"/></Array><mxPoint as="offset"/></mxGeometry></mxCell><mxCell id="GIEl06KKrTqUNCEo8xZw-38" value="1" style="text;html=1;align=center;verticalAlign=middle;resizable=0;points=[];autosize=1;strokeColor=none;fillColor=none;" parent="WIyWlLk6GJQsqaUBKTNV-1" vertex="1"><mxGeometry x="907" y="471" width="30" height="30" as="geometry"/></mxCell><mxCell id="GIEl06KKrTqUNCEo8xZw-39" value="1" style="endArrow=open;html=1;endSize=12;startArrow=diamondThin;startSize=14;startFill=0;edgeStyle=orthogonalEdgeStyle;align=left;verticalAlign=bottom;rounded=0;entryX=0.5;entryY=0;entryDx=0;entryDy=0;exitX=0.474;exitY=0.962;exitDx=0;exitDy=0;exitPerimeter=0;" parent="WIyWlLk6GJQsqaUBKTNV-1" source="09wgL-icxeziZa0lxa4r-7" target="GIEl06KKrTqUNCEo8xZw-11" edge="1"><mxGeometry x="-0.9156" y="2" relative="1" as="geometry"><mxPoint x="689.94" y="335.9960000000001" as="sourcePoint"/><mxPoint x="69" y="393.74" as="targetPoint"/><Array as="points"><mxPoint x="690" y="360"/><mxPoint x="510" y="360"/></Array><mxPoint as="offset"/></mxGeometry></mxCell><mxCell id="GIEl06KKrTqUNCEo8xZw-40" value="N" style="text;html=1;align=center;verticalAlign=middle;resizable=0;points=[];autosize=1;strokeColor=none;fillColor=none;" parent="WIyWlLk6GJQsqaUBKTNV-1" vertex="1"><mxGeometry x="580" y="530" width="30" height="30" as="geometry"/></mxCell><mxCell id="H49Ui0ylg4HPvWi4D4S9-2" value="Turnos" style="swimlane;fontStyle=0;childLayout=stackLayout;horizontal=1;startSize=26;fillColor=none;horizontalStack=0;resizeParent=1;resizeParentMax=0;resizeLast=0;collapsible=1;marginBottom=0;" parent="WIyWlLk6GJQsqaUBKTNV-1" vertex="1"><mxGeometry x="110" y="400" width="170" height="130" as="geometry"/></mxCell><mxCell id="H49Ui0ylg4HPvWi4D4S9-3" value="- id: ID" style="text;strokeColor=none;fillColor=none;align=left;verticalAlign=top;spacingLeft=4;spacingRight=4;overflow=hidden;rotatable=0;points=[[0,0.5],[1,0.5]];portConstraint=eastwest;" parent="H49Ui0ylg4HPvWi4D4S9-2" vertex="1"><mxGeometry y="26" width="170" height="26" as="geometry"/></mxCell><mxCell id="H49Ui0ylg4HPvWi4D4S9-4" value="- uuidTurno: UUID" style="text;strokeColor=none;fillColor=none;align=left;verticalAlign=top;spacingLeft=4;spacingRight=4;overflow=hidden;rotatable=0;points=[[0,0.5],[1,0.5]];portConstraint=eastwest;" parent="H49Ui0ylg4HPvWi4D4S9-2" vertex="1"><mxGeometry y="52" width="170" height="26" as="geometry"/></mxCell><mxCell id="H49Ui0ylg4HPvWi4D4S9-8" value="+ fechaInicio: LocalDateTime" style="text;strokeColor=none;fillColor=none;align=left;verticalAlign=top;spacingLeft=4;spacingRight=4;overflow=hidden;rotatable=0;points=[[0,0.5],[1,0.5]];portConstraint=eastwest;" parent="H49Ui0ylg4HPvWi4D4S9-2" vertex="1"><mxGeometry y="78" width="170" height="26" as="geometry"/></mxCell><mxCell id="H49Ui0ylg4HPvWi4D4S9-11" value="+ fechaFin: LocalDateTime" style="text;strokeColor=none;fillColor=none;align=left;verticalAlign=top;spacingLeft=4;spacingRight=4;overflow=hidden;rotatable=0;points=[[0,0.5],[1,0.5]];portConstraint=eastwest;" parent="H49Ui0ylg4HPvWi4D4S9-2" vertex="1"><mxGeometry y="104" width="170" height="26" as="geometry"/></mxCell><mxCell id="H49Ui0ylg4HPvWi4D4S9-9" value="1" style="endArrow=open;html=1;endSize=12;startArrow=diamondThin;startSize=14;startFill=1;edgeStyle=orthogonalEdgeStyle;align=left;verticalAlign=bottom;rounded=0;exitX=1;exitY=0.5;exitDx=0;exitDy=0;entryX=0.513;entryY=1.038;entryDx=0;entryDy=0;entryPerimeter=0;" parent="WIyWlLk6GJQsqaUBKTNV-1" source="H49Ui0ylg4HPvWi4D4S9-4" target="9ycLhSsThr9yeAhKwglg-0" edge="1"><mxGeometry x="-1" y="3" relative="1" as="geometry"><mxPoint x="-31" y="423.74" as="sourcePoint"/><mxPoint x="129" y="423.74" as="targetPoint"/><Array as="points"><mxPoint x="350" y="465"/><mxPoint x="350" y="760"/><mxPoint x="512" y="760"/></Array></mxGeometry></mxCell><mxCell id="H49Ui0ylg4HPvWi4D4S9-10" value="2&lt;br&gt;" style="text;html=1;align=center;verticalAlign=middle;resizable=0;points=[];autosize=1;strokeColor=none;fillColor=none;" parent="WIyWlLk6GJQsqaUBKTNV-1" vertex="1"><mxGeometry x="515" y="738" width="30" height="30" as="geometry"/></mxCell><mxCell id="H49Ui0ylg4HPvWi4D4S9-12" value="1" style="endArrow=open;html=1;endSize=12;startArrow=diamondThin;startSize=14;startFill=1;edgeStyle=orthogonalEdgeStyle;align=left;verticalAlign=bottom;rounded=0;exitX=0;exitY=0.5;exitDx=0;exitDy=0;entryX=0.5;entryY=1;entryDx=0;entryDy=0;entryPerimeter=0;" parent="WIyWlLk6GJQsqaUBKTNV-1" source="H49Ui0ylg4HPvWi4D4S9-4" target="wLVJEsf6AbZPAwA1VKSY-15" edge="1"><mxGeometry x="-0.9551" y="-5" relative="1" as="geometry"><mxPoint x="870" y="859.01" as="sourcePoint"/><mxPoint x="175.75" y="304.054" as="targetPoint"/><Array as="points"><mxPoint x="80" y="465"/><mxPoint x="80" y="371"/><mxPoint x="176" y="371"/><mxPoint x="176" y="310"/></Array><mxPoint as="offset"/></mxGeometry></mxCell><mxCell id="1" value="1" style="text;html=1;align=center;verticalAlign=middle;resizable=0;points=[];autosize=1;strokeColor=none;fillColor=none;" parent="WIyWlLk6GJQsqaUBKTNV-1" vertex="1"><mxGeometry x="170" y="276" width="30" height="30" as="geometry"/></mxCell><mxCell id="2" value="1" style="endArrow=open;html=1;endSize=12;startArrow=diamondThin;startSize=14;startFill=0;edgeStyle=orthogonalEdgeStyle;align=left;verticalAlign=bottom;rounded=0;exitX=1;exitY=0.5;exitDx=0;exitDy=0;entryX=0.25;entryY=0;entryDx=0;entryDy=0;" parent="WIyWlLk6GJQsqaUBKTNV-1" source="wLVJEsf6AbZPAwA1VKSY-12" target="GIEl06KKrTqUNCEo8xZw-11" edge="1"><mxGeometry x="-1" relative="1" as="geometry"><mxPoint x="245" y="212" as="sourcePoint"/><mxPoint x="575" y="250" as="targetPoint"/><mxPoint as="offset"/><Array as="points"><mxPoint x="300" y="185"/><mxPoint x="300" y="260"/><mxPoint x="465" y="260"/></Array></mxGeometry></mxCell></root></mxGraphModel></diagram></mxfile>